<svg width="62" height="62" viewBox="0 0 62 62" fill="none" xmlns="http://www.w3.org/2000/svg">
<path fill-rule="evenodd" clip-rule="evenodd" d="M60.9997 30.8558C60.9413 18.7057 51.0444 8.90342 38.8943 8.96181C26.7441 9.02019 16.9419 18.9171 17.0002 31.0673C17.0586 43.2174 26.9556 53.0197 39.1057 52.9613C51.2558 52.9029 61.0581 43.006 60.9997 30.8558Z" fill="black" fill-opacity="0.01"/>
<path d="M3.00035 31.1345C2.92604 15.6707 15.4017 3.07462 30.8655 3.00031C46.3293 2.926 58.9254 15.4016 58.9997 30.8654C59.074 46.3292 46.5984 58.9254 31.1346 58.9997C15.6708 59.074 3.07466 46.5983 3.00035 31.1345Z" fill="#2196F3" stroke="#42A5F5" stroke-width="4"/>
<mask id="mask0_1_705" style="mask-type:luminance" maskUnits="userSpaceOnUse" x="1" y="1" width="60" height="60">
<path fill-rule="evenodd" clip-rule="evenodd" d="M60.9997 30.8558C60.9201 14.2875 47.4242 0.920716 30.8559 1.00033C14.2875 1.07995 0.920754 14.5758 1.00037 31.1441C1.07999 47.7125 14.5758 61.0793 31.1442 60.9996C47.7125 60.92 61.0793 47.4242 60.9997 30.8558Z" fill="white"/>
</mask>
<g mask="url(#mask0_1_705)">
<path d="M24.0062 58.3199L23.7475 4.49851" stroke="#42A5F5" stroke-width="4" stroke-linecap="square"/>
<path d="M39.756 58.2442L39.4974 4.42282" stroke="#42A5F5" stroke-width="4" stroke-linecap="square"/>
<path d="M5.50393 31.8725C5.50393 31.8725 17.1292 41.779 31.8005 41.4928C46.4717 41.2066 56.5033 31.6274 56.5033 31.6274" stroke="#42A5F5" stroke-width="4" stroke-linecap="round" stroke-linejoin="round"/>
<path d="M5.50034 31.1225C5.50034 31.1225 17.0299 21.1047 31.7032 21.2499C46.3765 21.3951 56.4998 30.8774 56.4998 30.8774" stroke="#42A5F5" stroke-width="4" stroke-linecap="round" stroke-linejoin="round"/>
</g>
<path fill-rule="evenodd" clip-rule="evenodd" d="M19.979 20.8582C19.8625 20.6588 19.7897 20.4386 19.7741 20.2082C19.7052 19.192 19.607 16.2566 20.7068 15.6146C21.8067 14.9725 24.3139 16.5021 25.1643 17.0618C25.3571 17.1887 25.5128 17.3602 25.6291 17.5594L29.1661 23.6183L46.2622 22.6923C46.5016 22.6793 46.7287 22.7993 46.8528 23.0044L47.6071 24.2501C47.7064 24.4142 47.7281 24.6138 47.6664 24.7954L47.3439 25.7438C47.2899 25.9027 47.1765 26.0344 47.0275 26.1115L34.427 32.6301L38.1348 38.9815L42.8095 39.646C43.1331 39.692 43.372 39.9713 43.3674 40.2981L43.3604 40.7961C43.3568 41.048 43.2078 41.2751 42.9782 41.3787L38.9709 43.1877C39.0161 44.4177 38.9007 45.5731 38.3656 45.8855C37.8309 46.1976 36.7729 45.7295 35.7288 45.0844L32.2102 47.6648C32.0071 47.8138 31.7361 47.8319 31.515 47.7111L31.0778 47.4724C30.791 47.3158 30.6653 46.9704 30.7843 46.666L32.4935 42.2955L28.7791 35.9328L16.9873 43.6483C16.8469 43.7402 16.6764 43.7741 16.5115 43.743L15.5271 43.5575C15.3386 43.522 15.1754 43.4049 15.0814 43.2377L14.3674 41.9685C14.2499 41.7596 14.2571 41.5029 14.3861 41.3008L23.5404 26.9589L19.979 20.8582Z" fill="white"/>
<mask id="mask1_1_705" style="mask-type:luminance" maskUnits="userSpaceOnUse" x="14" y="15" width="34" height="33">
<path fill-rule="evenodd" clip-rule="evenodd" d="M19.979 20.8582C19.8625 20.6588 19.7897 20.4386 19.7741 20.2082C19.7052 19.192 19.607 16.2566 20.7068 15.6146C21.8067 14.9725 24.3139 16.5021 25.1643 17.0618C25.3571 17.1887 25.5128 17.3602 25.6291 17.5594L29.1661 23.6183L46.2622 22.6923C46.5016 22.6793 46.7287 22.7993 46.8528 23.0044L47.6071 24.2501C47.7064 24.4142 47.7281 24.6138 47.6664 24.7954L47.3439 25.7438C47.2899 25.9027 47.1765 26.0344 47.0275 26.1115L34.427 32.6301L38.1348 38.9815L42.8095 39.646C43.1331 39.692 43.372 39.9713 43.3674 40.2981L43.3604 40.7961C43.3568 41.048 43.2078 41.2751 42.9782 41.3787L38.9709 43.1877C39.0161 44.4177 38.9007 45.5731 38.3656 45.8855C37.8309 46.1976 36.7729 45.7295 35.7288 45.0844L32.2102 47.6648C32.0071 47.8138 31.7361 47.8319 31.515 47.7111L31.0778 47.4724C30.791 47.3158 30.6653 46.9704 30.7843 46.666L32.4935 42.2955L28.7791 35.9328L16.9873 43.6483C16.8469 43.7402 16.6764 43.7741 16.5115 43.743L15.5271 43.5575C15.3386 43.522 15.1754 43.4049 15.0814 43.2377L14.3674 41.9685C14.2499 41.7596 14.2571 41.5029 14.3861 41.3008L23.5404 26.9589L19.979 20.8582Z" fill="white"/>
</mask>
<g mask="url(#mask1_1_705)">
<rect x="21.7621" y="26.5083" width="1.30853" height="12.4084" transform="rotate(-30.2753 21.7621 26.5083)" fill="#EBECF2"/>
<path fill-rule="evenodd" clip-rule="evenodd" d="M46.8529 23.0044C46.7287 22.7993 46.5017 22.6793 46.2623 22.6923L28.6072 23.6486L33.9842 32.8592L47.0275 26.1115C47.1766 26.0344 47.29 25.9027 47.344 25.7438L47.6664 24.7954C47.7282 24.6138 47.7064 24.4141 47.6071 24.25L46.8529 23.0044Z" fill="#DEE1E3"/>
<path opacity="0.4" fill-rule="evenodd" clip-rule="evenodd" d="M38.8597 43.1258L38.9115 43.2145L42.9782 41.3787C43.2079 41.2751 43.3568 41.048 43.3604 40.7961L43.3674 40.2981C43.372 39.9713 43.1331 39.692 42.8095 39.646L37.8716 38.9441L38.1411 39.4058C38.2246 39.5487 38.2871 39.7025 38.324 39.8638C38.4494 40.4134 38.7471 41.8081 38.8597 43.1258Z" fill="#DEE1E3"/>
<path fill-rule="evenodd" clip-rule="evenodd" d="M34.2218 32.7363L28.9071 23.6323L30.918 23.5234L37.5539 31.0125L34.2218 32.7363Z" fill="#C5C6CC"/>
<path fill-rule="evenodd" clip-rule="evenodd" d="M23.8733 14.5518L41.216 44.2597C41.216 44.2597 39.6316 45.1464 38.3655 45.8855C38.3502 45.8945 38.3347 45.9029 38.319 45.9109C38.4102 44.5589 38.2872 41.8382 36.7508 39.2064L24.7443 18.6393C23.4102 16.3541 21.6942 15.801 20.9562 15.4954C22.239 15.0107 23.8733 14.5518 23.8733 14.5518Z" fill="#DEE1E3"/>
</g>
</svg>
